<svg width="1920" height="1080" viewBox="0 0 1920 1080" fill="none" xmlns="http://www.w3.org/2000/svg">
  <!-- Background gradient -->
  <defs>
    <linearGradient id="background" x1="0%" y1="0%" x2="100%" y2="100%">
      <stop offset="0%" style="stop-color:#8B4513;stop-opacity:1" />
      <stop offset="50%" style="stop-color:#A0522D;stop-opacity:1" />
      <stop offset="100%" style="stop-color:#D2B48C;stop-opacity:1" />
    </linearGradient>
    <linearGradient id="column" x1="0%" y1="0%" x2="100%" y2="100%">
      <stop offset="0%" style="stop-color:#F5F5DC;stop-opacity:0.9" />
      <stop offset="100%" style="stop-color:#E6E6FA;stop-opacity:0.7" />
    </linearGradient>
  </defs>
  
  <!-- Main background -->
  <rect width="1920" height="1080" fill="url(#background)"/>
  
  <!-- Ancient columns silhouettes -->
  <rect x="100" y="200" width="60" height="600" fill="url(#column)" opacity="0.6"/>
  <rect x="200" y="180" width="60" height="620" fill="url(#column)" opacity="0.7"/>
  <rect x="300" y="220" width="60" height="580" fill="url(#column)" opacity="0.5"/>
  
  <!-- Right side columns -->
  <rect x="1560" y="190" width="60" height="610" fill="url(#column)" opacity="0.6"/>
  <rect x="1660" y="170" width="60" height="630" fill="url(#column)" opacity="0.7"/>
  <rect x="1760" y="210" width="60" height="590" fill="url(#column)" opacity="0.5"/>
  
  <!-- Ancient architectural elements -->
  <polygon points="80,200 380,200 380,180 80,180" fill="url(#column)" opacity="0.8"/>
  <polygon points="1540,190 1840,190 1840,170 1540,170" fill="url(#column)" opacity="0.8"/>
  
  <!-- Decorative ancient patterns -->
  <circle cx="960" cy="150" r="30" fill="url(#column)" opacity="0.3"/>
  <circle cx="960" cy="930" r="25" fill="url(#column)" opacity="0.3"/>
  
  <!-- Subtle texture overlay -->
  <rect width="1920" height="1080" fill="url(#background)" opacity="0.1"/>
</svg>